<?xml version="1.0" encoding="utf-8"?>
<!-- Generator: Adobe Illustrator 27.4.1, SVG Export Plug-In . SVG Version: 6.00 Build 0)  -->
<svg version="1.1" id="Слой_1" xmlns="http://www.w3.org/2000/svg" xmlns:xlink="http://www.w3.org/1999/xlink" x="0px" y="0px"
	 viewBox="0 0 48 48" style="enable-background:new 0 0 48 48;" xml:space="preserve">
<path d="M6.5,47.6c-1,0-1.8-0.4-2.5-1.1C3.2,45.9,2.9,45,2.9,44v-36c0-1,0.4-1.8,1.1-2.5c0.7-0.7,1.5-1.1,2.5-1.1h4.6V0.1h3.1v4.3
	h19.7V0.1H37v4.3h4.6c1,0,1.8,0.4,2.5,1.1c0.7,0.7,1.1,1.5,1.1,2.5v36c0,1-0.4,1.8-1.1,2.5c-0.7,0.7-1.5,1.1-2.5,1.1
	C41.5,47.6,6.5,47.6,6.5,47.6z M6.5,44.8h35.1c0.2,0,0.4-0.1,0.5-0.2c0.2-0.2,0.2-0.3,0.2-0.5V19.4H5.7V44c0,0.2,0.1,0.4,0.2,0.5
	C6.1,44.7,6.3,44.8,6.5,44.8z M5.7,16.6h36.6V8.1c0-0.2-0.1-0.4-0.2-0.5c-0.2-0.2-0.3-0.2-0.5-0.2H6.5c-0.2,0-0.4,0.1-0.5,0.2
	C5.8,7.7,5.7,7.9,5.7,8.1C5.7,8.1,5.7,16.6,5.7,16.6z M5.7,16.6V7.3V16.6z M24,29.2c-0.6,0-1.1-0.2-1.6-0.6s-0.6-0.9-0.6-1.6
	c0-0.6,0.2-1.1,0.6-1.6s0.9-0.6,1.6-0.6s1.1,0.2,1.6,0.6s0.6,0.9,0.6,1.6c0,0.6-0.2,1.1-0.6,1.6S24.6,29.2,24,29.2z M14.1,29.2
	c-0.6,0-1.1-0.2-1.6-0.6s-0.6-0.9-0.6-1.6c0-0.6,0.2-1.1,0.6-1.6s0.9-0.6,1.6-0.6c0.6,0,1.1,0.2,1.6,0.6s0.6,0.9,0.6,1.6
	c0,0.6-0.2,1.1-0.6,1.6S14.7,29.2,14.1,29.2z M33.9,29.2c-0.6,0-1.1-0.2-1.6-0.6c-0.4-0.4-0.6-0.9-0.6-1.6c0-0.6,0.2-1.1,0.6-1.6
	c0.4-0.4,0.9-0.6,1.6-0.6s1.1,0.2,1.6,0.6c0.4,0.4,0.6,0.9,0.6,1.6c0,0.6-0.2,1.1-0.6,1.6C35.1,29,34.5,29.2,33.9,29.2z M24,38.9
	c-0.6,0-1.1-0.2-1.6-0.6c-0.4-0.4-0.6-0.9-0.6-1.6s0.2-1.1,0.6-1.6c0.4-0.4,0.9-0.6,1.6-0.6s1.1,0.2,1.6,0.6
	c0.4,0.4,0.6,0.9,0.6,1.6c0,0.6-0.2,1.1-0.6,1.6C25.1,38.7,24.6,38.9,24,38.9z M14.1,38.9c-0.6,0-1.1-0.2-1.6-0.6
	c-0.4-0.4-0.6-0.9-0.6-1.6s0.2-1.1,0.6-1.6c0.4-0.4,0.9-0.6,1.6-0.6c0.6,0,1.1,0.2,1.6,0.6c0.4,0.4,0.6,0.9,0.6,1.6
	c0,0.6-0.2,1.1-0.6,1.6C15.2,38.7,14.7,38.9,14.1,38.9z M33.9,38.9c-0.6,0-1.1-0.2-1.6-0.6c-0.4-0.4-0.6-0.9-0.6-1.6
	s0.2-1.1,0.6-1.6c0.4-0.4,0.9-0.6,1.6-0.6s1.1,0.2,1.6,0.6c0.4,0.4,0.6,0.9,0.6,1.6c0,0.6-0.2,1.1-0.6,1.6
	C35.1,38.7,34.5,38.9,33.9,38.9z"/>
</svg>
