<?xml version="1.0" encoding="utf-8"?>
<!-- Generator: Adobe Illustrator 27.4.1, SVG Export Plug-In . SVG Version: 6.00 Build 0)  -->
<svg version="1.1" id="Слой_1" xmlns="http://www.w3.org/2000/svg" xmlns:xlink="http://www.w3.org/1999/xlink" x="0px" y="0px"
	 viewBox="0 0 48 48" style="enable-background:new 0 0 48 48;" xml:space="preserve">
<path d="M0,41.1v-4.4c0-1.2,0.3-2.3,1-3.3c0.6-0.9,1.5-1.7,2.7-2.2c2.5-1.1,4.9-1.9,6.9-2.5c2.1-0.5,4.4-0.8,7-0.8
	c2.6,0,4.9,0.3,7,0.8c2.1,0.5,4.4,1.4,6.9,2.5c1.1,0.5,2,1.2,2.7,2.2c0.6,0.9,1,2,1,3.3v4.4H0z M39,41.1v-4.4c0-2.1-0.5-3.8-1.5-5.2
	c-1-1.4-2.2-2.5-3.8-3.4c2.1,0.3,4.1,0.7,5.9,1.2c1.9,0.5,3.4,1.1,4.7,1.7c1.1,0.6,2,1.4,2.7,2.4c0.7,1,1,2.1,1,3.3v4.4
	C48,41.1,39,41.1,39,41.1z M17.6,23.2c-2.3,0-4.1-0.7-5.6-2.2c-1.5-1.5-2.2-3.3-2.2-5.6c0-2.3,0.7-4.1,2.2-5.6
	c1.5-1.5,3.3-2.2,5.6-2.2c2.3,0,4.1,0.7,5.6,2.2c1.5,1.5,2.2,3.3,2.2,5.6c0,2.3-0.7,4.1-2.2,5.6C21.7,22.5,19.8,23.2,17.6,23.2z
	 M36.1,15.4c0,2.3-0.7,4.1-2.2,5.6c-1.5,1.5-3.3,2.2-5.6,2.2c-0.3,0-0.6,0-0.9-0.1c-0.3,0-0.6-0.1-0.8-0.2c0.8-0.9,1.5-2,1.9-3.3
	c0.4-1.3,0.6-2.7,0.6-4.2c0-1.5-0.2-2.9-0.7-4.1c-0.5-1.2-1.1-2.3-1.9-3.4c0.2-0.1,0.5-0.1,0.8-0.2c0.3,0,0.6-0.1,0.8-0.1
	c2.3,0,4.1,0.7,5.6,2.2C35.4,11.3,36.1,13.1,36.1,15.4z M2.7,38.4h29.8v-1.8c0-0.6-0.2-1.2-0.5-1.8c-0.4-0.5-0.9-1-1.5-1.3
	c-2.5-1.1-4.6-1.9-6.5-2.4c-1.9-0.4-4-0.7-6.4-0.7s-4.5,0.2-6.4,0.7c-1.9,0.4-4,1.2-6.5,2.4c-0.7,0.3-1.2,0.8-1.5,1.3
	c-0.4,0.5-0.5,1.1-0.5,1.8V38.4z M17.6,20.5c1.5,0,2.7-0.5,3.7-1.5c1-1,1.5-2.2,1.5-3.7c0-1.5-0.5-2.7-1.5-3.7c-1-1-2.2-1.5-3.7-1.5
	c-1.5,0-2.7,0.5-3.7,1.5c-1,1-1.5,2.2-1.5,3.7s0.5,2.7,1.5,3.7C14.9,20,16.1,20.5,17.6,20.5z"/>
</svg>
