<?xml version="1.0" encoding="utf-8"?>
<!-- Generator: Adobe Illustrator 27.4.1, SVG Export Plug-In . SVG Version: 6.00 Build 0)  -->
<svg version="1.1" id="Слой_1" xmlns="http://www.w3.org/2000/svg" xmlns:xlink="http://www.w3.org/1999/xlink" x="0px" y="0px"
	 viewBox="0 0 48 48" style="enable-background:new 0 0 48 48;" xml:space="preserve">
<path d="M14.1,45.1h19.8v-7.9c0-2.9-0.9-5.5-2.8-7.6c-1.9-2.2-4.2-3.3-7.1-3.3s-5.2,1.1-7.1,3.3c-1.9,2.2-2.8,4.7-2.8,7.6
	C14.1,37.2,14.1,45.1,14.1,45.1z M5.3,48v-2.9h5.9v-7.9c0-3,0.8-5.8,2.5-8.2c1.7-2.5,3.9-4.1,6.8-5c-2.9-0.9-5.1-2.6-6.8-5
	c-1.7-2.5-2.5-5.2-2.5-8.2V2.9H5.3V0h37.4v2.9h-5.9v7.9c0,3-0.8,5.8-2.5,8.2c-1.7,2.5-3.9,4.2-6.8,5c2.9,0.9,5.1,2.6,6.8,5
	c1.7,2.5,2.5,5.2,2.5,8.2v7.9h5.9V48C42.7,48,5.3,48,5.3,48z"/>
</svg>
