<?xml version="1.0" encoding="utf-8"?>
<!-- Generator: Adobe Illustrator 27.4.1, SVG Export Plug-In . SVG Version: 6.00 Build 0)  -->
<svg version="1.1" id="Слой_1" xmlns="http://www.w3.org/2000/svg" xmlns:xlink="http://www.w3.org/1999/xlink" x="0px" y="0px"
	 viewBox="0 0 48 48" style="enable-background:new 0 0 48 48;" xml:space="preserve">
<path d="M3.6,42.9c-1,0-1.8-0.4-2.6-1.1C0.4,41.1,0,40.3,0,39.3V8.7c0-1,0.4-1.8,1.1-2.6c0.7-0.7,1.6-1.1,2.6-1.1h40.7
	c1,0,1.8,0.4,2.6,1.1S48,7.7,48,8.7v30.6c0,1-0.4,1.8-1.1,2.6c-0.7,0.7-1.6,1.1-2.6,1.1C44.4,42.9,3.6,42.9,3.6,42.9z M24,24.4
	l-21.1-14v28.9c0,0.2,0.1,0.4,0.2,0.6c0.1,0.1,0.3,0.2,0.6,0.2h40.7c0.2,0,0.4-0.1,0.6-0.2c0.1-0.1,0.2-0.3,0.2-0.6V10.4L24,24.4z
	 M24,21.4L44.6,7.9H3.5L24,21.4z M2.9,10.4V7.9v31.4c0,0.2,0.1,0.4,0.2,0.6c0.1,0.1,0.3,0.2,0.6,0.2H2.9V10.4z"/>
</svg>
