<?xml version="1.0" encoding="utf-8"?>
<!-- Generator: Adobe Illustrator 27.4.1, SVG Export Plug-In . SVG Version: 6.00 Build 0)  -->
<svg version="1.1" id="Слой_1" xmlns="http://www.w3.org/2000/svg" xmlns:xlink="http://www.w3.org/1999/xlink" x="0px" y="0px"
	 viewBox="0 0 48 48" style="enable-background:new 0 0 48 48;" xml:space="preserve">
<path d="M24,22.8c-3.1,0-5.6-1-7.6-3c-2-2-3-4.5-3-7.6c0-3.1,1-5.6,3-7.6c2-2,4.5-3,7.6-3c3.1,0,5.6,1,7.6,3c2,2,3,4.5,3,7.6
	c0,3.1-1,5.6-3,7.6C29.6,21.8,27.1,22.8,24,22.8z M0,47.2v-6.1c0-1.7,0.5-3.2,1.4-4.5c0.9-1.3,2.1-2.3,3.6-2.9
	c3.4-1.5,6.6-2.6,9.7-3.4c3.1-0.8,6.2-1.1,9.3-1.1c3.1,0,6.2,0.4,9.3,1.2c3.1,0.8,6.3,1.9,9.7,3.4c1.5,0.7,2.7,1.7,3.6,2.9
	c0.9,1.3,1.4,2.8,1.4,4.5v6.1H0z M3.6,43.5h40.7v-2.4c0-0.8-0.3-1.6-0.8-2.4c-0.5-0.8-1.2-1.4-2.1-1.8c-3.1-1.5-6.1-2.6-8.9-3.2
	c-2.8-0.6-5.7-0.9-8.6-0.9s-5.8,0.3-8.7,0.9s-5.8,1.7-8.9,3.2c-0.8,0.4-1.5,1-2,1.8c-0.5,0.8-0.8,1.6-0.8,2.4
	C3.6,41.1,3.6,43.5,3.6,43.5z M24,19.1c2,0,3.7-0.7,5-2c1.3-1.3,2-3,2-5s-0.7-3.7-2-5c-1.3-1.3-3-2-5-2c-2,0-3.7,0.7-5,2
	c-1.3,1.3-2,3-2,5s0.7,3.7,2,5C20.3,18.5,22,19.1,24,19.1z"/>
</svg>
